<?xml version="1.0" standalone="no"?><!DOCTYPE svg PUBLIC "-//W3C//DTD SVG 1.1//EN" "http://www.w3.org/Graphics/SVG/1.1/DTD/svg11.dtd"><svg t="1685707778000" class="icon" viewBox="0 0 1252 1024" version="1.1" xmlns="http://www.w3.org/2000/svg" p-id="875" xmlns:xlink="http://www.w3.org/1999/xlink" width="244.53125" height="200"><path d="M967.811413 568.888889a56.888889 56.888889 0 0 1 0-113.777778h113.777778a56.888889 56.888889 0 0 1 0 113.777778h-113.777778z" fill="#313645" p-id="876"></path><path d="M1121.809636 665.998222a56.888889 56.888889 0 0 1-80.440889-80.440889l113.777777-113.777777a56.888889 56.888889 0 1 1 80.440889 80.440888l-113.777777 113.777778zM683.366969 284.444444h113.777778a56.888889 56.888889 0 0 1 0 113.777778H513.496747v56.888889H740.255858a113.777778 113.777778 0 0 1 113.777778 113.777778v56.888889a113.777778 113.777778 0 0 1-113.777778 113.777778h-56.888889v56.888888a56.888889 56.888889 0 0 1-113.777778 0v-56.888888H455.811413a56.888889 56.888889 0 0 1 0-113.777778h284.444445v-56.888889H513.496747a113.777778 113.777778 0 0 1-113.777778-113.777778V398.222222a113.777778 113.777778 0 0 1 113.777778-113.777778H569.589191V227.555556a56.888889 56.888889 0 0 1 113.777778 0v56.888888z" fill="#313645" p-id="877"></path><path d="M1041.368747 438.442667a56.888889 56.888889 0 1 1 80.440889-80.440889l113.777777 113.777778a56.888889 56.888889 0 0 1-80.440889 80.440888l-113.777777-113.777777zM285.144747 568.888889a56.888889 56.888889 0 0 0 0-113.777778H114.47808a56.888889 56.888889 0 1 0 0 113.777778h170.666667zM1138.47808 796.444444a56.888889 56.888889 0 0 1 113.777778 0v56.888889a170.666667 170.666667 0 0 1-170.666667 170.666667H171.366969a170.666667 170.666667 0 0 1-170.666667-170.666667v-56.888889a56.888889 56.888889 0 0 1 113.777778 0v56.888889a56.888889 56.888889 0 0 0 56.888889 56.888889h910.222222a56.888889 56.888889 0 0 0 56.888889-56.888889v-56.888889zM114.47808 228.295111a56.888889 56.888889 0 0 1-113.777778 0V170.666667a170.666667 170.666667 0 0 1 170.666667-170.666667h910.222222a170.666667 170.666667 0 0 1 170.666667 170.666667v56.888889a56.888889 56.888889 0 0 1-113.777778 0V170.666667a56.888889 56.888889 0 0 0-56.888889-56.888889H171.366969a56.888889 56.888889 0 0 0-56.888889 56.888889v57.628444z" fill="#313645" p-id="878"></path><path d="M131.146524 665.998222a56.888889 56.888889 0 0 0 80.440889-80.440889l-113.777777-113.777777A56.888889 56.888889 0 1 0 17.368747 552.220444l113.777777 113.777778z" fill="#313645" p-id="879"></path><path d="M211.587413 438.442667a56.888889 56.888889 0 1 0-80.440889-80.440889l-113.777777 113.777778a56.888889 56.888889 0 0 0 80.440889 80.440888l113.777777-113.777777z" fill="#313645" p-id="880"></path></svg>